<svg t="1780822464335" class="icon" viewBox="0 0 1024 1024" version="1.1" xmlns="http://www.w3.org/2000/svg" p-id="8457" width="200" height="200"><path d="M512 804.571h512V1024H512V804.571zM0 0h658.286v219.429H0V0z" fill="#9AA1A2" p-id="8458"></path><path d="M619.813 950.857h-184.32c-78.775 0-142.922-66.121-142.922-147.31V185.93c0-21.943 17.189-39.643 38.474-39.643 21.211 0 33.353 17.773 33.353 39.643v617.618c0 37.523 34.743 73.728 71.095 73.728h184.32c21.211 0 38.473 12.069 38.473 33.939 0 21.943-17.189 39.643-38.473 39.643z" fill="#9AA1A2" p-id="8459"></path><path d="M676.571 457.143V347.429a54.857 54.857 0 0 1 109.715 0v109.714H896a54.857 54.857 0 0 1 0 109.714H786.286v109.714a54.857 54.857 0 0 1-109.715 0V566.857H566.857a54.857 54.857 0 0 1 0-109.714h109.714z" fill="#9AA1A2" p-id="8460"></path></svg>
