<svg t="1780822312364" class="icon" viewBox="0 0 1024 1024" version="1.1" xmlns="http://www.w3.org/2000/svg" p-id="7459" width="200" height="200"><path d="M329.16 292.571h658.286V512H329.16zM329.16 0h658.286v219.429H329.16z" fill="#9AA1A2" p-id="7460"></path><path d="M44.927 146.286a46.519 46.519 0 0 1 38.107-73.143h319.269v73.143H109.73V791.99l-48.713 5.705-24.43-651.41h8.339z" fill="#9AA1A2" p-id="7461"></path><path d="M363.83 877.714H179.51c-78.775 0-142.921-66.12-142.921-147.31V112.787c0-21.943 17.188-39.643 38.473-39.643 21.211 0 33.5 17.774 33.5 39.643v617.619c0 37.522 28.013 76.58 64.438 76.58h190.903c21.211 0 38.766 13.97 38.766 35.84 0 21.943-17.555 34.89-38.766 34.89z" fill="#9AA1A2" p-id="7462"></path><path d="M432.95 438.857H179.51c-78.775 0-81.043-18.578-81.043-62.903l10.094-90.624c0 20.48 13.458 80.677 49.884 80.677h210.139c21.211 0 120.613 4.023 120.613 16.018 0 11.922-35.036 56.832-56.32 56.832zM640.017 749.714V640a54.857 54.857 0 0 1 109.714 0v109.714h109.715a54.857 54.857 0 0 1 0 109.715H749.73v109.714a54.857 54.857 0 0 1-109.714 0V859.429H530.303a54.857 54.857 0 0 1 0-109.715h109.714z" fill="#9AA1A2" p-id="7463"></path></svg>
